<svg xmlns="http://www.w3.org/2000/svg" viewBox="0 0 36 36">
<ellipse cx="18" cy="26.10" rx="17.50" ry="9.90" fill="#422D24"/>
<ellipse cx="18" cy="21.62" rx="16.80" ry="9.56" fill="#EFE2C4"/>
<ellipse cx="18" cy="20.57" rx="16.80" ry="9.56" fill="#FFFAEC"/>
<ellipse cx="18" cy="14.69" rx="17.50" ry="9.90" fill="#5C3E30"/>
<ellipse cx="32.16" cy="14.69" rx="0.79" ry="1.46" fill="#7B5540" transform="rotate(90.0 32.16 14.69)"/>
<ellipse cx="30.76" cy="18.14" rx="0.79" ry="1.46" fill="#7B5540" transform="rotate(130.6 30.76 18.14)"/>
<ellipse cx="26.83" cy="20.91" rx="0.79" ry="1.46" fill="#7B5540" transform="rotate(155.9 26.83 20.91)"/>
<ellipse cx="21.15" cy="22.44" rx="0.79" ry="1.46" fill="#7B5540" transform="rotate(172.7 21.15 22.44)"/>
<ellipse cx="14.85" cy="22.44" rx="0.79" ry="1.46" fill="#7B5540" transform="rotate(-172.7 14.85 22.44)"/>
<ellipse cx="9.17" cy="20.91" rx="0.79" ry="1.46" fill="#7B5540" transform="rotate(-155.9 9.17 20.91)"/>
<ellipse cx="5.24" cy="18.14" rx="0.79" ry="1.46" fill="#7B5540" transform="rotate(-130.6 5.24 18.14)"/>
<ellipse cx="3.84" cy="14.70" rx="0.79" ry="1.46" fill="#7B5540" transform="rotate(-90.0 3.84 14.70)"/>
<ellipse cx="5.24" cy="11.25" rx="0.79" ry="1.46" fill="#7B5540" transform="rotate(-49.4 5.24 11.25)"/>
<ellipse cx="9.17" cy="8.48" rx="0.79" ry="1.46" fill="#7B5540" transform="rotate(-24.1 9.17 8.48)"/>
<ellipse cx="14.85" cy="6.95" rx="0.79" ry="1.46" fill="#7B5540" transform="rotate(-7.3 14.85 6.95)"/>
<ellipse cx="21.15" cy="6.95" rx="0.79" ry="1.46" fill="#7B5540" transform="rotate(7.3 21.15 6.95)"/>
<ellipse cx="26.83" cy="8.48" rx="0.79" ry="1.46" fill="#7B5540" transform="rotate(24.1 26.83 8.48)"/>
<ellipse cx="30.76" cy="11.25" rx="0.79" ry="1.46" fill="#7B5540" transform="rotate(49.4 30.76 11.25)"/>
<ellipse cx="18" cy="14.69" rx="10.48" ry="5.42" fill="none" stroke="#7B5540" stroke-width="1.44"/>
<ellipse cx="18" cy="14.69" rx="4.95" ry="2.42" fill="#7B5540"/>
</svg>
